<svg width="16" height="16" viewBox="0 0 16 16" fill="none" xmlns="http://www.w3.org/2000/svg">
<path d="M15.4465 15.1823L14.1588 13.0358C13.564 12.045 13.2498 10.9102 13.2498 9.75526V7.875C13.2498 5.50125 11.6658 3.49351 9.49977 2.84625V1.50001C9.49977 0.67275 8.82702 0 7.99976 0C7.1725 0 6.49975 0.67275 6.49975 1.50001V2.84625C4.33377 3.49351 2.74977 5.50125 2.74977 7.875V9.75526C2.74977 10.9102 2.43551 12.0442 1.84151 13.035L0.553772 15.1815C0.484022 15.2978 0.48251 15.4418 0.549272 15.5595C0.616034 15.6773 0.739784 15.75 0.874784 15.75H15.1248C15.2598 15.75 15.3843 15.6773 15.451 15.5603C15.5178 15.4433 15.5155 15.2978 15.4465 15.1823Z" fill="#BFC3CC"/>
</svg>
