<svg width="4" height="4" viewBox="0 0 4 4" fill="none" xmlns="http://www.w3.org/2000/svg">
<path d="M2.31878 2.00084L3.67315 0.646433C3.76129 0.558334 3.76129 0.415891 3.67315 0.327793C3.58505 0.239694 3.44261 0.239694 3.35451 0.327793L2.0001 1.6822L0.645732 0.327793C0.557592 0.239694 0.41519 0.239694 0.327091 0.327793C0.238951 0.415891 0.238951 0.558334 0.327091 0.646433L1.68146 2.00084L0.327091 3.35525C0.238951 3.44335 0.238951 3.58579 0.327091 3.67389C0.370996 3.71783 0.428725 3.73991 0.486412 3.73991C0.544099 3.73991 0.601786 3.71783 0.645732 3.67389L2.0001 2.31948L3.35451 3.67389C3.39846 3.71783 3.45614 3.73991 3.51383 3.73991C3.57152 3.73991 3.62921 3.71783 3.67315 3.67389C3.76129 3.58579 3.76129 3.44335 3.67315 3.35525L2.31878 2.00084Z" fill="white"/>
</svg>
