<svg width="18" height="18" viewBox="0 0 18 18" fill="none" xmlns="http://www.w3.org/2000/svg">
<path d="M8.50384 0.721783C8.59704 0.532979 8.78931 0.413452 8.99988 0.413452C9.21045 0.413416 9.40276 0.532943 9.49596 0.721747L11.6536 5.09298C11.8565 5.504 12.2487 5.78896 12.7023 5.85484L17.5265 6.55612C17.7349 6.58643 17.908 6.73236 17.9731 6.93263C18.0381 7.13287 17.9839 7.35271 17.8331 7.4997L14.3426 10.9026C14.0143 11.2226 13.8646 11.6836 13.942 12.1353L14.7656 16.9393C14.8012 17.1469 14.7159 17.3566 14.5455 17.4802C14.3752 17.6041 14.1493 17.6203 13.963 17.5223L9.64802 15.2543C9.2423 15.041 8.75758 15.041 8.35178 15.2544L4.03722 17.5223C3.85083 17.6203 3.62499 17.6039 3.45467 17.4802C3.28431 17.3564 3.19903 17.1466 3.2346 16.9392L4.05859 12.1356C4.13612 11.6837 3.98631 11.2226 3.65801 10.9025L0.167251 7.49974C0.0164998 7.35275 -0.0378042 7.1329 0.0272729 6.93267C0.09235 6.73243 0.265451 6.5865 0.473829 6.55616L5.29786 5.85492C5.7515 5.78896 6.14368 5.50404 6.34658 5.09294L8.50384 0.721783Z" fill="#283754"/>
</svg>
